<?xml version="1.0" standalone="no"?>
<!DOCTYPE svg PUBLIC "-//W3C//DTD SVG 20010904//EN"
 "http://www.w3.org/TR/2001/REC-SVG-20010904/DTD/svg10.dtd">
<svg version="1.0" xmlns="http://www.w3.org/2000/svg"
 width="500.000000pt" height="244.000000pt" viewBox="0 0 500.000000 244.000000"
 preserveAspectRatio="xMidYMid meet">

<g transform="translate(0.000000,244.000000) scale(0.100000,-0.100000)"
fill="#000000" stroke="none">
<path d="M0 1220 l0 -1220 2500 0 2500 0 0 1220 0 1220 -2500 0 -2500 0 0
-1220z m1347 314 c59 -37 46 -141 -22 -170 -42 -17 -76 -11 -109 22 -34 34
-40 68 -20 111 28 58 92 74 151 37z m-243 -17 c20 -27 21 -40 21 -296 0 -291
-3 -309 -55 -331 -38 -16 -79 -2 -101 34 -17 28 -19 53 -19 294 0 321 3 333
94 329 30 -2 44 -9 60 -30z m2717 -81 c19 -13 19 -14 -13 -34 -35 -22 -48 -21
-29 2 16 19 -6 56 -34 56 -28 0 -50 -37 -34 -56 20 -24 2 -27 -29 -4 l-29 22
23 23 c13 13 24 31 24 39 0 12 7 14 29 10 16 -3 37 -1 48 4 15 9 18 7 21 -18
2 -17 12 -36 23 -44z m-1258 -100 c149 -71 170 -91 151 -144 -8 -22 -38 -40
-174 -104 -91 -43 -175 -78 -186 -78 -12 0 -31 8 -43 18 -19 16 -21 28 -22
185 -1 176 2 191 46 207 25 9 57 -2 228 -84z m770 47 c2 -10 8 -26 12 -36 7
-17 6 -18 -13 -6 -17 11 -24 11 -34 1 -15 -15 -38 -16 -38 -1 0 5 5 7 10 4 6
-4 15 7 21 24 12 34 34 41 42 14z m427 -7 c0 -8 7 -16 15 -20 8 -3 15 -14 15
-26 0 -13 12 -25 37 -35 77 -32 113 -88 113 -174 0 -87 -31 -138 -105 -172
-73 -34 -177 -19 -232 33 -13 12 -23 29 -23 39 0 9 -7 39 -16 67 -11 33 -14
63 -10 87 9 46 65 109 108 121 23 7 34 17 36 32 2 13 10 26 18 29 8 3 14 11
14 19 0 8 7 14 15 14 8 0 15 -6 15 -14z m-2906 -11 c24 -24 28 -69 24 -259
l-3 -178 -28 -24 c-35 -30 -52 -30 -82 1 -25 24 -25 25 -25 231 0 179 2 210
17 226 20 22 76 24 97 3z m3343 -70 c57 -17 109 -67 118 -113 4 -15 8 -36 10
-47 6 -30 -14 -105 -37 -138 -29 -41 -91 -67 -161 -67 -72 0 -113 17 -154 63
-29 33 -31 39 -21 73 5 20 7 63 3 96 -7 58 -7 59 29 92 55 53 127 66 213 41z
m-708 -8 c13 -6 33 -25 45 -40 20 -27 20 -29 4 -74 -16 -44 -16 -47 3 -71 30
-39 25 -95 -11 -126 -38 -32 -71 -38 -190 -34 l-95 3 -3 165 c-1 90 0 170 2
177 7 18 211 18 245 0z m965 -24 c18 -21 46 -53 62 -71 l29 -33 58 70 c53 66
60 71 96 71 26 0 41 -5 45 -16 3 -9 6 -87 6 -175 0 -159 0 -159 -24 -169 -57
-21 -91 4 -82 60 2 17 1 30 -2 30 -4 0 -28 -23 -53 -52 l-45 -51 -38 40 c-20
23 -44 49 -51 59 -13 17 -14 14 -15 -33 l0 -53 -50 0 -50 0 0 173 c0 96 3 177
7 180 3 4 22 7 40 7 27 0 41 -8 67 -37z"/>
</g>
</svg>
